# xmcd
#
# Track frame offsets: 
#        150
#        13625
#        27105
#        44090
#        56742
#        69132
#        84805
#        94385
#        105977
#        117085
#        132922
#        144602
#        156882
#        171897
#        184720
#        203385
#
# Disc length: 2940 seconds
#
# Revision: 0
# Processed by: cddbd v1.4PL0 Copyright (c) Steve Scherf et al.
# Submitted via: ExactAudioCopy v0.90b2
#
DISCID=cb0b7a10
DTITLE=Various Artist - The Charly Blues Masterworks Sampler 2
DYEAR=1900
DGENRE=Blues
TTITLE0=I Believe, I'll Dust My Broom - Robert Johnson
TTITLE1=T Bone Shuffle - T Bone Walker
TTITLE2=19 Years Old - Muddy Waters
TTITLE3=Mambo Chillun - John Lee Hooker
TTITLE4=Got To Move - Elmore James
TTITLE5=Nine Below Zero - Sonny Boy Williamson
TTITLE6=Rockin' The House - Memphis Slim
TTITLE7=Who Will Be Next -Howlin Wolf
TTITLE8=Good Rockin' Tonight -Jimmy Witherspoon
TTITLE9=Easy baby - Magic Sam
TTITLE10=My Babe - Little Walter
TTITLE11=Double Trouble - Otis Rush
TTITLE12=My Time After Awhile - Buddy Guy
TTITLE13=Shame, Shame, Shame - Jimmy Reed
TTITLE14=Who Do You Love - The Super Blues Band
TTITLE15=Little Red Rooster - Howlin Wolf/ Eric Clapton
EXTD=
EXTT0=
EXTT1=
EXTT2=
EXTT3=
EXTT4=
EXTT5=
EXTT6=
EXTT7=
EXTT8=
EXTT9=
EXTT10=
EXTT11=
EXTT12=
EXTT13=
EXTT14=
EXTT15=
PLAYORDER=
